<svg class="svg-icon" style="width: 1.0009765625em; height: 1em;vertical-align: middle;fill: currentColor;overflow: hidden;" viewBox="0 0 1025 1024" version="1.1" xmlns="http://www.w3.org/2000/svg"><path d="M611.750895 161.177792m-23.215498 0a1.134 1.134 0 1 0 46.430996 0 1.134 1.134 0 1 0-46.430996 0Z"  /><path d="M472.519323 161.177792m-23.215498 0a1.134 1.134 0 1 0 46.430996 0 1.134 1.134 0 1 0-46.430996 0Z"  /><path d="M542.145345 114.767268m-23.215498 0a1.134 1.134 0 1 0 46.430996 0 1.134 1.134 0 1 0-46.430996 0Z"  /><path d="M719.39383 626.388532l-51.016774 0c-21.495832 0-41.742858 5.34325-59.615106 14.617165 8.925888-41.660969-2.661389-86.863632-34.966553-119.168796l-36.072053-36.072053c-8.004638-8.004638-20.943082-8.004638-28.94772 0L472.703573 521.836902c-32.26422 32.26422-43.871969 77.405466-35.007497 119.005018-17.79036-9.171555-37.935025-14.47386-59.287551-14.47386l-50.996301 0c-11.321138 0-20.472221 9.151083-20.472221 20.472221l0 50.996301c0 71.591355 58.243467 129.834823 129.814351 129.834823l51.016774 0c11.321138 0 20.472221-9.151083 20.472221-20.472221l0-50.996301c0-5.568444-0.470861-11.014055-1.146444-16.418721l1.699194 1.699194c3.992083 3.992083 9.232971 5.998361 14.47386 5.998361s10.481777-2.006278 14.47386-5.998361l2.047222-2.047222c-0.716528 5.507027-1.207861 11.075471-1.207861 16.766749l0 50.996301c0 11.321138 9.151083 20.472221 20.472221 20.472221l50.996301 0c71.591355 0 129.834823-58.243467 129.834823-129.834823l0-50.996301C739.866051 635.539615 730.714968 626.388532 719.39383 626.388532zM467.278434 786.747436l-30.544553 0c-49.010496 0-88.869909-39.859413-88.869909-88.890382l0-30.524081 30.524081 0c49.030968 0 88.890382 39.859413 88.890382 88.890382L467.278434 786.747436zM523.249485 698.082249l-21.598193-21.598193c-34.638997-34.638997-34.638997-91.039965 0-125.699434l21.598193-21.598193 21.598193 21.598193c34.638997 34.638997 34.638997 91.039965 0 125.699434L523.249485 698.082249zM698.92161 697.857054c0 49.030968-39.859413 88.890382-88.890382 88.890382l-30.524081 0 0-30.524081c0-49.030968 39.859413-88.890382 88.869909-88.890382l30.544553 0L698.92161 697.857054z"  /><path d="M1009.15764 915.517703l-57.567884-57.567884c-0.040944-1.822028-0.163778-3.685-0.3685-5.588916L895.864372 396.055579c24.873748-6.305444 42.50033-24.095804 42.50033-45.837302l0-4.073972c0-56.42144-56.196245-106.76263-126.231712-118.308963C789.470241 188.467262 683.71075 21.925748 504.353626 0.286611L501.896959 0l-2.456666 0.286611C320.799696 21.843859 215.163038 187.136568 191.906595 227.364481c-71.714189 10.379416-129.916712 61.375717-129.916712 118.779824l0 4.073972c0 25.139887 23.461165 44.997941 54.558468 47.884524L72.18505 853.568764c-0.18425 1.637778-0.286611 3.275555-0.327556 4.892861L14.84236 915.517703c-15.517943 15.538415-19.202943 38.221636-9.396749 57.854495 9.826666 19.591915 30.155581 30.073692 51.917551 27.187109l106.455547-15.231332c1.044083 0.348028 2.108639 0.634639 3.193666 0.880305 113.39563 25.180831 227.63062 37.791719 341.967972 37.791719 108.502769 0 217.087427-11.362082 324.935085-34.065775l21.147804-4.462944c0.737-0.163778 1.453528-0.348028 2.190528-0.532278l109.362602 15.640777c21.823387 3.255083 42.111358-7.574722 51.897079-27.207581C1028.360583 953.739339 1024.675583 931.056119 1009.15764 915.517703zM501.896959 41.251524c132.905656 17.278554 223.392871 129.343489 260.222395 184.086207L241.613147 225.337732C278.319838 170.595014 368.602331 58.550551 501.896959 41.251524zM102.934325 350.218277l0-4.073972c0-36.931886 50.464024-79.862132 115.524741-79.862132l563.436454 0c65.060717 0 115.524741 42.950719 115.524741 79.862132l0.040944 3.746416c-0.470861 1.371639-4.012555 4.0535-9.601471 5.916472l-171.372958 25.180831c-52.163218 7.65661-137.348128 11.382555-222.36926 11.218777-85.021132-0.163778-169.898958-4.196805-221.488954-12.058138L120.581379 356.953638l-0.040944 0.409444C110.058658 356.380415 103.589436 351.856055 102.934325 350.218277zM981.929587 955.029089c-1.125972 2.211-3.766889 5.691277-9.49911 4.97475l-118.145185-16.86911-4.012555 1.064555c-1.207861 0.327556-2.354305 0.716528-3.603111 1.207861l-21.168276 4.462944c-215.756732 45.44833-434.297687 44.199524-650.422919-3.930666-1.207861-0.429917-2.39525-0.859833-3.644055-1.228333l-4.217277-1.228333L51.589996 960.024311c-5.691277 0.737-8.39361-2.76375-9.519583-4.954277-1.1055-2.211-2.333833-6.510166 1.719667-10.60461l69.032328-69.032328-0.040944-11.607749c-0.020472-1.883444-0.102361-3.766889 0.143306-5.977888l44.199524-453.889602 109.362602 16.664388c6.878666 1.044083 14.310082 2.02675 22.191887 2.968472 0.18425 0.020472 0.388972 0.040944 0.573222 0.061417 7.718027 0.900778 15.865971 1.719667 24.402887 2.497611 0.163778 0.020472 0.327556 0.020472 0.470861 0.040944 52.306524 4.708611 118.65699 7.062916 184.823207 7.062916 0.143306 0 0.266139 0 0.409444 0 0.777944 0 1.555889 0 2.333833-0.020472 9.703833 0 19.366721-0.061417 29.009137-0.163778 1.166917 0 2.333833-0.040944 3.50075-0.061417 9.376277-0.122833 18.691137-0.266139 27.903637-0.491333 1.371639-0.040944 2.722805-0.081889 4.094444-0.122833 8.94636-0.225194 17.810832-0.470861 26.511526-0.798417 1.862972-0.061417 3.644055-0.163778 5.486555-0.225194 8.106999-0.307083 16.173054-0.634639 23.993442-1.044083 2.538555-0.122833 4.913333-0.286611 7.390472-0.429917 7.001499-0.388972 14.002999-0.777944 20.717887-1.228333 3.214139-0.204722 6.162138-0.470861 9.294388-0.696055 5.732222-0.429917 11.546332-0.839361 17.012415-1.310222 4.299166-0.3685 8.250305-0.818889 12.344749-1.228333 3.951139-0.388972 8.086527-0.757472 11.832943-1.166917 7.677083-0.859833 14.924249-1.801555 21.680082-2.784222l132.885184-19.510026 55.213579 455.117935c0.245667 2.02675 0.143306 3.992083 0.122833 5.977888l-0.040944 11.812471 69.564605 69.564605C984.26342 948.518923 983.035087 952.838561 981.929587 955.029089z"  /></svg>